<svg width="407" height="260" viewBox="0 0 407 260" fill="none" xmlns="http://www.w3.org/2000/svg">
<path d="M13.6649 168.7C11.9983 168.7 10.6983 168.233 9.76492 167.3C8.89826 166.367 8.46492 165.067 8.46492 163.4V102.8C8.46492 101.067 8.93159 99.7667 9.86492 98.9C10.7983 97.9667 12.0983 97.5 13.7649 97.5H37.6649C45.2649 97.5 51.1316 99.4 55.2649 103.2C59.3983 106.933 61.4649 112.2 61.4649 119C61.4649 125.867 59.3983 131.2 55.2649 135C51.1316 138.733 45.2649 140.6 37.6649 140.6H18.8649V163.4C18.8649 165.067 18.4316 166.367 17.5649 167.3C16.6983 168.233 15.3983 168.7 13.6649 168.7ZM18.8649 132.3H36.1649C41.1649 132.3 44.9316 131.2 47.4649 129C50.0649 126.733 51.3649 123.4 51.3649 119C51.3649 114.667 50.0649 111.4 47.4649 109.2C44.9316 106.933 41.1649 105.8 36.1649 105.8H18.8649V132.3ZM77.6851 168C76.0184 168 74.7184 167.533 73.7851 166.6C72.8517 165.667 72.3851 164.367 72.3851 162.7V102.4C72.3851 100.667 72.8184 99.3667 73.6851 98.5C74.6184 97.5667 75.9184 97.1 77.5851 97.1C79.2517 97.1 80.5184 97.5667 81.3851 98.5C82.3184 99.3667 82.7851 100.667 82.7851 102.4V159.1H113.785C115.252 159.1 116.385 159.5 117.185 160.3C117.985 161.033 118.385 162.1 118.385 163.5C118.385 164.9 117.985 166 117.185 166.8C116.385 167.6 115.252 168 113.785 168H77.6851ZM125.065 168.7C123.732 168.7 122.665 168.4 121.865 167.8C121.065 167.2 120.599 166.4 120.465 165.4C120.332 164.4 120.532 163.267 121.065 162L148.165 101.2C148.832 99.6 149.665 98.4667 150.665 97.8C151.732 97.1333 152.899 96.8 154.165 96.8C155.365 96.8 156.465 97.1333 157.465 97.8C158.532 98.4667 159.399 99.6 160.065 101.2L187.165 162C187.765 163.267 187.999 164.433 187.865 165.5C187.732 166.5 187.299 167.3 186.565 167.9C185.832 168.433 184.799 168.7 183.465 168.7C181.999 168.7 180.832 168.333 179.965 167.6C179.099 166.867 178.332 165.733 177.665 164.2L170.665 148L175.365 150.8H132.765L137.365 148L130.465 164.2C129.799 165.8 129.065 166.967 128.265 167.7C127.465 168.367 126.399 168.7 125.065 168.7ZM153.965 109L138.865 144.8L136.365 142.4H171.665L169.365 144.8L154.165 109H153.965ZM203.758 168.7C202.225 168.7 201.025 168.267 200.158 167.4C199.292 166.533 198.858 165.3 198.858 163.7V102C198.858 100.333 199.258 99.0667 200.058 98.2C200.925 97.2667 202.058 96.8 203.458 96.8C204.658 96.8 205.558 97.0333 206.158 97.5C206.825 97.9 207.592 98.6667 208.458 99.8L249.658 154.1H247.158V101.7C247.158 100.167 247.558 98.9667 248.358 98.1C249.225 97.2333 250.425 96.8 251.958 96.8C253.558 96.8 254.758 97.2333 255.558 98.1C256.358 98.9667 256.758 100.167 256.758 101.7V163.8C256.758 165.333 256.358 166.533 255.558 167.4C254.825 168.267 253.825 168.7 252.558 168.7C251.358 168.7 250.358 168.467 249.558 168C248.825 167.533 248.025 166.733 247.158 165.6L206.158 111.4H208.458V163.7C208.458 165.3 208.058 166.533 207.258 167.4C206.458 168.267 205.292 168.7 203.758 168.7ZM278.135 168.7C276.468 168.7 275.168 168.233 274.235 167.3C273.368 166.367 272.935 165.067 272.935 163.4V102.1C272.935 100.367 273.368 99.0667 274.235 98.2C275.168 97.2667 276.468 96.8 278.135 96.8C279.801 96.8 281.068 97.2667 281.935 98.2C282.868 99.0667 283.335 100.367 283.335 102.1V163.4C283.335 165.067 282.901 166.367 282.035 167.3C281.168 168.233 279.868 168.7 278.135 168.7ZM304.952 168.7C303.219 168.7 301.852 168.233 300.852 167.3C299.919 166.367 299.452 165 299.452 163.2V103.1C299.452 101.3 299.919 99.9333 300.852 99C301.852 98 303.252 97.5 305.052 97.5H340.652C342.119 97.5 343.186 97.8667 343.852 98.6C344.586 99.2667 344.952 100.267 344.952 101.6C344.952 103 344.586 104.067 343.852 104.8C343.186 105.533 342.119 105.9 340.652 105.9H309.852V128.4H338.652C339.986 128.4 341.019 128.767 341.752 129.5C342.552 130.167 342.952 131.167 342.952 132.5C342.952 133.9 342.552 134.967 341.752 135.7C341.019 136.433 339.986 136.8 338.652 136.8H309.852V163.2C309.852 166.867 308.219 168.7 304.952 168.7ZM376.391 168.7C374.724 168.7 373.424 168.233 372.491 167.3C371.624 166.367 371.191 165.033 371.191 163.3V131.6L373.491 138.2L348.791 103.9C348.057 102.9 347.724 101.867 347.791 100.8C347.857 99.6667 348.291 98.7333 349.091 98C349.957 97.2 351.091 96.8 352.491 96.8C353.557 96.8 354.524 97.0667 355.391 97.6C356.324 98.1333 357.191 98.9667 357.991 100.1L377.791 127.6H375.391L395.191 100.1C396.057 98.9 396.891 98.0667 397.691 97.6C398.491 97.0667 399.491 96.8 400.691 96.8C402.091 96.8 403.157 97.1667 403.891 97.9C404.691 98.5667 405.091 99.4667 405.091 100.6C405.157 101.667 404.757 102.8 403.891 104L379.391 138.2L381.491 131.6V163.3C381.491 166.9 379.791 168.7 376.391 168.7Z" fill="#333333"/>
<path fill-rule="evenodd" clip-rule="evenodd" d="M254.632 84C235.742 34.8687 188.101 0 132.316 0C76.5315 0 28.8907 34.8687 10 84H35.0519C52.5294 47.8977 89.5152 23 132.316 23C175.117 23 212.103 47.8977 229.58 84H254.632Z" fill="#000081"/>
<path fill-rule="evenodd" clip-rule="evenodd" d="M143 176C161.891 225.131 209.531 260 265.316 260C321.101 260 368.742 225.131 387.632 176L362.58 176C345.103 212.102 308.117 237 265.316 237C222.515 237 185.529 212.102 168.052 176L143 176Z" fill="#3F3FEA"/>
</svg>
